<svg xmlns="http://www.w3.org/2000/svg" xmlns:xlink="http://www.w3.org/1999/xlink" width="500" zoomAndPan="magnify" viewBox="0 0 375 374.999991" height="500" preserveAspectRatio="xMidYMid meet" version="1.0"><defs><clipPath id="8cd2944fce"><path d="M 24.703125 24.703125 L 350.203125 24.703125 L 350.203125 350.203125 L 24.703125 350.203125 Z M 24.703125 24.703125 " clip-rule="nonzero"/></clipPath><clipPath id="69add51f76"><path d="M 2.492188 0.496094 L 198.46875 0.496094 L 198.46875 196.46875 L 2.492188 196.46875 Z M 2.492188 0.496094 " clip-rule="nonzero"/></clipPath><clipPath id="ccf048568e"><path d="M 2.492188 2.3125 L 198.46875 2.3125 L 198.46875 198.285156 L 2.492188 198.285156 Z M 2.492188 2.3125 " clip-rule="nonzero"/></clipPath><clipPath id="7f3b08170d"><path d="M 2.492188 0.496094 L 198.46875 0.496094 L 198.46875 196.46875 L 2.492188 196.46875 Z M 2.492188 0.496094 " clip-rule="nonzero"/></clipPath><clipPath id="e6e0bd2a70"><path d="M 0.320312 0.496094 L 196.289062 0.496094 L 196.289062 196.46875 L 0.320312 196.46875 Z M 0.320312 0.496094 " clip-rule="nonzero"/></clipPath><clipPath id="9dd85c1369"><path d="M 0.320312 2.3125 L 196.289062 2.3125 L 196.289062 198.285156 L 0.320312 198.285156 Z M 0.320312 2.3125 " clip-rule="nonzero"/></clipPath><clipPath id="415c33cc09"><path d="M 2.492188 0.496094 L 198.46875 0.496094 L 198.46875 196.46875 L 2.492188 196.46875 Z M 2.492188 0.496094 " clip-rule="nonzero"/></clipPath><clipPath id="65a8c0b6ee"><rect x="0" width="199" y="0" height="199"/></clipPath></defs><g clip-path="url(#8cd2944fce)"><path fill="#cffff9" d="M 350.867188 187.785156 C 350.867188 190.453125 350.800781 193.121094 350.667969 195.785156 C 350.539062 198.453125 350.339844 201.113281 350.082031 203.769531 C 349.820312 206.425781 349.492188 209.074219 349.101562 211.714844 C 348.707031 214.355469 348.253906 216.984375 347.730469 219.601562 C 347.210938 222.21875 346.625 224.820312 345.976562 227.410156 C 345.328125 230 344.617188 232.570312 343.84375 235.125 C 343.070312 237.679688 342.230469 240.210938 341.332031 242.726562 C 340.433594 245.238281 339.472656 247.726562 338.453125 250.191406 C 337.429688 252.660156 336.347656 255.097656 335.207031 257.511719 C 334.066406 259.921875 332.867188 262.308594 331.609375 264.660156 C 330.351562 267.015625 329.035156 269.335938 327.664062 271.625 C 326.292969 273.914062 324.863281 276.167969 323.382812 278.386719 C 321.898438 280.605469 320.363281 282.789062 318.773438 284.933594 C 317.183594 287.074219 315.539062 289.179688 313.847656 291.242188 C 312.15625 293.304688 310.410156 295.324219 308.621094 297.304688 C 306.828125 299.28125 304.988281 301.214844 303.101562 303.101562 C 301.214844 304.988281 299.28125 306.828125 297.304688 308.621094 C 295.324219 310.410156 293.304688 312.15625 291.242188 313.847656 C 289.179688 315.539062 287.074219 317.183594 284.933594 318.773438 C 282.789062 320.363281 280.605469 321.898438 278.386719 323.382812 C 276.167969 324.863281 273.914062 326.292969 271.625 327.664062 C 269.335938 329.035156 267.015625 330.351562 264.660156 331.609375 C 262.308594 332.867188 259.921875 334.066406 257.511719 335.207031 C 255.097656 336.347656 252.660156 337.429688 250.191406 338.453125 C 247.726562 339.472656 245.238281 340.433594 242.726562 341.332031 C 240.210938 342.230469 237.679688 343.066406 235.125 343.84375 C 232.570312 344.617188 230 345.328125 227.410156 345.976562 C 224.820312 346.625 222.21875 347.210938 219.601562 347.730469 C 216.984375 348.253906 214.355469 348.707031 211.714844 349.101562 C 209.074219 349.492188 206.425781 349.820312 203.769531 350.078125 C 201.113281 350.339844 198.453125 350.539062 195.785156 350.667969 C 193.121094 350.800781 190.453125 350.867188 187.785156 350.867188 C 185.117188 350.867188 182.449219 350.800781 179.78125 350.667969 C 177.117188 350.539062 174.457031 350.339844 171.800781 350.078125 C 169.144531 349.820312 166.496094 349.492188 163.855469 349.101562 C 161.214844 348.707031 158.585938 348.253906 155.96875 347.730469 C 153.351562 347.210938 150.75 346.625 148.160156 345.976562 C 145.570312 345.328125 143 344.617188 140.445312 343.84375 C 137.890625 343.066406 135.359375 342.230469 132.84375 341.332031 C 130.332031 340.433594 127.84375 339.472656 125.378906 338.453125 C 122.910156 337.429688 120.472656 336.347656 118.058594 335.207031 C 115.648438 334.066406 113.261719 332.867188 110.910156 331.609375 C 108.554688 330.351562 106.234375 329.035156 103.945312 327.664062 C 101.65625 326.292969 99.402344 324.863281 97.183594 323.382812 C 94.964844 321.898438 92.78125 320.363281 90.636719 318.773438 C 88.496094 317.183594 86.390625 315.539062 84.328125 313.847656 C 82.265625 312.15625 80.246094 310.410156 78.265625 308.621094 C 76.289062 306.828125 74.355469 304.988281 72.46875 303.101562 C 70.582031 301.214844 68.742188 299.28125 66.949219 297.304688 C 65.160156 295.324219 63.414062 293.304688 61.722656 291.242188 C 60.027344 289.179688 58.386719 287.074219 56.796875 284.933594 C 55.207031 282.789062 53.671875 280.605469 52.1875 278.386719 C 50.707031 276.167969 49.277344 273.914062 47.90625 271.625 C 46.535156 269.335938 45.21875 267.015625 43.960938 264.660156 C 42.703125 262.308594 41.503906 259.921875 40.363281 257.511719 C 39.222656 255.097656 38.140625 252.660156 37.117188 250.191406 C 36.097656 247.726562 35.136719 245.238281 34.238281 242.726562 C 33.339844 240.210938 32.5 237.679688 31.726562 235.125 C 30.953125 232.570312 30.242188 230 29.59375 227.410156 C 28.945312 224.820312 28.359375 222.21875 27.839844 219.601562 C 27.316406 216.984375 26.863281 214.355469 26.46875 211.714844 C 26.078125 209.074219 25.75 206.425781 25.488281 203.769531 C 25.230469 201.113281 25.03125 198.453125 24.902344 195.785156 C 24.769531 193.121094 24.703125 190.453125 24.703125 187.785156 C 24.703125 185.117188 24.769531 182.449219 24.902344 179.78125 C 25.03125 177.117188 25.230469 174.457031 25.488281 171.800781 C 25.75 169.144531 26.078125 166.496094 26.46875 163.855469 C 26.863281 161.214844 27.316406 158.585938 27.839844 155.96875 C 28.359375 153.351562 28.945312 150.75 29.59375 148.160156 C 30.242188 145.570312 30.953125 143 31.726562 140.445312 C 32.5 137.890625 33.339844 135.359375 34.238281 132.84375 C 35.136719 130.332031 36.097656 127.84375 37.117188 125.378906 C 38.140625 122.910156 39.222656 120.472656 40.363281 118.058594 C 41.503906 115.648438 42.703125 113.261719 43.960938 110.910156 C 45.21875 108.554688 46.535156 106.234375 47.90625 103.945312 C 49.277344 101.65625 50.707031 99.402344 52.1875 97.183594 C 53.671875 94.964844 55.207031 92.78125 56.796875 90.636719 C 58.386719 88.496094 60.027344 86.390625 61.722656 84.328125 C 63.414062 82.265625 65.160156 80.246094 66.949219 78.265625 C 68.742188 76.289062 70.582031 74.355469 72.46875 72.46875 C 74.355469 70.582031 76.289062 68.742188 78.265625 66.949219 C 80.246094 65.160156 82.265625 63.414062 84.328125 61.722656 C 86.390625 60.027344 88.496094 58.386719 90.636719 56.796875 C 92.78125 55.207031 94.964844 53.671875 97.183594 52.1875 C 99.402344 50.707031 101.65625 49.277344 103.945312 47.90625 C 106.234375 46.535156 108.554688 45.21875 110.910156 43.960938 C 113.261719 42.703125 115.648438 41.503906 118.058594 40.363281 C 120.472656 39.222656 122.910156 38.140625 125.378906 37.117188 C 127.84375 36.097656 130.332031 35.136719 132.84375 34.238281 C 135.359375 33.339844 137.890625 32.5 140.445312 31.726562 C 143 30.953125 145.570312 30.242188 148.160156 29.59375 C 150.75 28.945312 153.351562 28.359375 155.96875 27.839844 C 158.585938 27.316406 161.214844 26.863281 163.855469 26.46875 C 166.496094 26.078125 169.144531 25.75 171.800781 25.488281 C 174.457031 25.230469 177.117188 25.03125 179.78125 24.902344 C 182.449219 24.769531 185.117188 24.703125 187.785156 24.703125 C 190.453125 24.703125 193.121094 24.769531 195.785156 24.902344 C 198.453125 25.03125 201.113281 25.230469 203.769531 25.488281 C 206.425781 25.75 209.074219 26.078125 211.714844 26.46875 C 214.355469 26.863281 216.984375 27.316406 219.601562 27.839844 C 222.21875 28.359375 224.820312 28.945312 227.410156 29.59375 C 230 30.242188 232.570312 30.953125 235.125 31.726562 C 237.679688 32.5 240.210938 33.339844 242.726562 34.238281 C 245.238281 35.136719 247.726562 36.097656 250.191406 37.117188 C 252.660156 38.140625 255.097656 39.222656 257.511719 40.363281 C 259.921875 41.503906 262.308594 42.703125 264.660156 43.960938 C 267.015625 45.21875 269.335938 46.535156 271.625 47.90625 C 273.914062 49.277344 276.167969 50.707031 278.386719 52.1875 C 280.605469 53.671875 282.789062 55.207031 284.933594 56.796875 C 287.074219 58.386719 289.179688 60.027344 291.242188 61.722656 C 293.304688 63.414062 295.324219 65.160156 297.304688 66.949219 C 299.28125 68.742188 301.214844 70.582031 303.101562 72.46875 C 304.988281 74.355469 306.828125 76.289062 308.621094 78.265625 C 310.410156 80.246094 312.15625 82.265625 313.847656 84.328125 C 315.539062 86.390625 317.183594 88.496094 318.773438 90.636719 C 320.363281 92.78125 321.898438 94.964844 323.382812 97.183594 C 324.863281 99.402344 326.292969 101.65625 327.664062 103.945312 C 329.035156 106.234375 330.351562 108.554688 331.609375 110.910156 C 332.867188 113.261719 334.066406 115.648438 335.207031 118.058594 C 336.347656 120.472656 337.429688 122.910156 338.453125 125.378906 C 339.472656 127.84375 340.433594 130.332031 341.332031 132.84375 C 342.230469 135.359375 343.070312 137.890625 343.84375 140.445312 C 344.617188 143 345.328125 145.570312 345.976562 148.160156 C 346.625 150.75 347.210938 153.351562 347.730469 155.96875 C 348.253906 158.585938 348.707031 161.214844 349.101562 163.855469 C 349.492188 166.496094 349.820312 169.144531 350.082031 171.800781 C 350.339844 174.457031 350.539062 177.117188 350.667969 179.78125 C 350.800781 182.449219 350.867188 185.117188 350.867188 187.785156 Z M 350.867188 187.785156 " fill-opacity="1" fill-rule="nonzero"/></g><g transform="matrix(1, 0, 0, 1, 88, 88)"><g clip-path="url(#65a8c0b6ee)"><g clip-path="url(#69add51f76)"><path fill="#33af91" d="M 165.601562 162.523438 L 133.566406 130.488281 C 133.34375 130.265625 133.007812 130.199219 132.71875 130.320312 C 132.429688 130.441406 132.238281 130.722656 132.238281 131.039062 L 132.238281 179.207031 L 101.363281 194.644531 L 101.363281 99.089844 L 132.863281 83.339844 L 164.898438 115.375 C 164.945312 115.425781 165.003906 115.464844 165.0625 115.496094 C 165.078125 115.503906 165.09375 115.511719 165.109375 115.519531 C 165.167969 115.550781 165.230469 115.574219 165.292969 115.585938 C 165.292969 115.585938 165.296875 115.585938 165.296875 115.585938 C 165.347656 115.597656 165.398438 115.601562 165.449219 115.601562 C 165.464844 115.601562 165.480469 115.597656 165.5 115.597656 C 165.515625 115.597656 165.527344 115.59375 165.542969 115.59375 C 165.613281 115.585938 165.679688 115.570312 165.746094 115.542969 C 166.035156 115.421875 166.226562 115.140625 166.226562 114.824219 L 166.226562 66.660156 L 197.101562 51.222656 L 197.101562 146.773438 Z M 133.796875 146.773438 L 133.796875 132.917969 L 161.507812 160.628906 Z M 55.878906 153.398438 C 55.878906 153.398438 55.878906 153.394531 55.878906 153.394531 L 47.246094 136.136719 C 47.242188 136.121094 47.234375 136.109375 47.226562 136.09375 L 36.417969 114.476562 C 36.257812 114.152344 35.898438 113.984375 35.542969 114.066406 C 35.191406 114.148438 34.945312 114.460938 34.945312 114.824219 L 34.945312 162.210938 L 4.070312 146.773438 L 4.070312 51.222656 L 35.140625 66.757812 L 67.457031 131.386719 C 67.488281 131.449219 67.527344 131.503906 67.570312 131.550781 C 67.578125 131.558594 67.585938 131.570312 67.59375 131.578125 C 67.636719 131.621094 67.683594 131.660156 67.738281 131.695312 C 67.746094 131.699219 67.757812 131.707031 67.765625 131.710938 C 67.820312 131.742188 67.878906 131.769531 67.941406 131.789062 C 68.003906 131.804688 68.066406 131.8125 68.132812 131.816406 C 68.140625 131.816406 68.144531 131.816406 68.152344 131.816406 C 68.160156 131.816406 68.167969 131.816406 68.175781 131.816406 C 68.226562 131.8125 68.28125 131.808594 68.332031 131.796875 C 68.683594 131.714844 68.933594 131.402344 68.933594 131.039062 L 68.933594 83.652344 L 89.398438 93.886719 C 89.40625 93.890625 89.417969 93.894531 89.429688 93.902344 L 99.808594 99.089844 L 99.808594 194.644531 L 68.734375 179.105469 Z M 36.5 162.210938 L 36.5 118.121094 L 45.816406 136.753906 C 45.824219 136.765625 45.828125 136.78125 45.835938 136.792969 L 54.136719 153.394531 Z M 35.722656 34.617188 L 66.414062 49.960938 L 35.722656 65.308594 L 5.03125 49.960938 Z M 100.585938 2.183594 L 131.277344 17.53125 L 100.585938 32.875 L 69.894531 17.53125 Z M 132.667969 49.265625 C 132.65625 49.269531 132.648438 49.277344 132.640625 49.285156 C 132.628906 49.289062 132.617188 49.292969 132.609375 49.300781 C 132.582031 49.316406 132.566406 49.335938 132.542969 49.351562 C 132.519531 49.371094 132.496094 49.386719 132.472656 49.410156 C 132.445312 49.4375 132.421875 49.46875 132.394531 49.5 C 132.378906 49.523438 132.363281 49.542969 132.347656 49.566406 C 132.324219 49.605469 132.308594 49.648438 132.292969 49.691406 C 132.285156 49.710938 132.273438 49.734375 132.265625 49.757812 C 132.25 49.820312 132.238281 49.890625 132.238281 49.960938 L 132.238281 81.132812 L 122.785156 76.402344 L 101.628906 34.09375 L 132.667969 18.574219 L 144.945312 43.128906 Z M 165.449219 34.617188 L 196.136719 49.960938 L 165.449219 65.308594 L 154.988281 60.074219 C 154.976562 60.070312 154.964844 60.0625 154.949219 60.058594 L 134.757812 49.960938 L 146.335938 44.171875 C 146.339844 44.171875 146.339844 44.171875 146.339844 44.171875 Z M 133.796875 82.070312 L 133.796875 51.222656 L 154.246094 61.445312 C 154.261719 61.453125 154.273438 61.464844 154.289062 61.46875 L 164.667969 66.660156 L 164.667969 112.945312 Z M 99.582031 97.238281 L 90.125 92.507812 L 69.894531 82.394531 L 100.585938 67.046875 L 121.824219 77.667969 C 121.835938 77.671875 121.847656 77.679688 121.859375 77.683594 L 131.277344 82.394531 L 100.585938 97.738281 Z M 67.375 127.742188 L 36.765625 66.523438 L 67.804688 51.003906 L 73.945312 63.28125 L 80.082031 75.558594 L 67.804688 81.695312 C 67.796875 81.703125 67.789062 81.710938 67.777344 81.714844 C 67.769531 81.722656 67.753906 81.726562 67.746094 81.730469 C 67.71875 81.746094 67.703125 81.765625 67.679688 81.78125 C 67.65625 81.800781 67.632812 81.816406 67.613281 81.839844 C 67.582031 81.867188 67.558594 81.898438 67.535156 81.933594 C 67.519531 81.953125 67.5 81.976562 67.484375 82 C 67.464844 82.039062 67.445312 82.082031 67.429688 82.121094 C 67.421875 82.144531 67.410156 82.164062 67.40625 82.1875 C 67.386719 82.253906 67.375 82.324219 67.375 82.394531 Z M 94.695312 31.671875 L 100.003906 34.328125 L 106.097656 46.511719 L 120.464844 75.246094 L 100.933594 65.480469 C 100.714844 65.371094 100.457031 65.371094 100.238281 65.480469 L 81.476562 74.863281 L 68.933594 49.777344 L 68.933594 18.789062 Z M 198.628906 49.757812 C 198.621094 49.734375 198.613281 49.710938 198.601562 49.691406 C 198.585938 49.648438 198.570312 49.605469 198.550781 49.566406 C 198.535156 49.542969 198.515625 49.523438 198.5 49.5 C 198.476562 49.46875 198.449219 49.4375 198.421875 49.410156 C 198.402344 49.386719 198.378906 49.371094 198.351562 49.351562 C 198.332031 49.335938 198.3125 49.316406 198.289062 49.300781 C 198.277344 49.292969 198.265625 49.289062 198.253906 49.285156 C 198.246094 49.277344 198.238281 49.269531 198.226562 49.265625 L 165.796875 33.050781 C 165.578125 32.941406 165.320312 32.941406 165.101562 33.050781 L 146.335938 42.429688 L 133.710938 17.183594 C 133.707031 17.167969 133.695312 17.15625 133.6875 17.144531 C 133.679688 17.128906 133.667969 17.113281 133.660156 17.097656 C 133.628906 17.054688 133.597656 17.015625 133.5625 16.976562 C 133.550781 16.96875 133.542969 16.960938 133.535156 16.949219 C 133.484375 16.90625 133.433594 16.871094 133.375 16.84375 C 133.371094 16.839844 133.367188 16.835938 133.363281 16.835938 L 100.933594 0.617188 C 100.714844 0.507812 100.457031 0.507812 100.238281 0.617188 L 67.804688 16.835938 C 67.796875 16.839844 67.789062 16.847656 67.777344 16.851562 C 67.769531 16.859375 67.753906 16.859375 67.746094 16.867188 C 67.71875 16.882812 67.703125 16.902344 67.679688 16.921875 C 67.65625 16.9375 67.632812 16.957031 67.613281 16.976562 C 67.582031 17.003906 67.558594 17.035156 67.535156 17.070312 C 67.519531 17.09375 67.5 17.113281 67.484375 17.136719 C 67.464844 17.175781 67.445312 17.21875 67.429688 17.257812 C 67.421875 17.28125 67.410156 17.300781 67.40625 17.324219 C 67.386719 17.390625 67.375 17.460938 67.375 17.53125 L 67.375 48.703125 L 36.070312 33.050781 C 35.851562 32.941406 35.59375 32.941406 35.375 33.050781 L 2.945312 49.265625 C 2.933594 49.269531 2.925781 49.28125 2.914062 49.285156 C 2.90625 49.289062 2.894531 49.292969 2.882812 49.300781 C 2.859375 49.316406 2.839844 49.335938 2.816406 49.351562 C 2.792969 49.371094 2.769531 49.386719 2.75 49.410156 C 2.71875 49.4375 2.695312 49.46875 2.671875 49.5 C 2.652344 49.523438 2.636719 49.542969 2.625 49.566406 C 2.597656 49.609375 2.582031 49.648438 2.566406 49.691406 C 2.558594 49.714844 2.546875 49.734375 2.542969 49.753906 C 2.523438 49.820312 2.511719 49.890625 2.511719 49.960938 L 2.511719 147.253906 C 2.511719 147.550781 2.679688 147.820312 2.945312 147.949219 L 35.375 164.167969 C 35.398438 164.179688 35.425781 164.183594 35.453125 164.195312 C 35.480469 164.203125 35.507812 164.21875 35.539062 164.222656 C 35.574219 164.234375 35.613281 164.234375 35.652344 164.242188 C 35.675781 164.242188 35.699219 164.25 35.722656 164.25 C 35.730469 164.25 35.738281 164.246094 35.742188 164.246094 C 35.765625 164.246094 35.785156 164.242188 35.808594 164.242188 C 35.847656 164.234375 35.886719 164.230469 35.929688 164.21875 C 35.949219 164.210938 35.972656 164.203125 36 164.195312 C 36.023438 164.183594 36.046875 164.179688 36.070312 164.167969 L 54.832031 154.785156 L 67.457031 180.035156 C 67.535156 180.183594 67.65625 180.308594 67.804688 180.382812 L 100.238281 196.597656 C 100.265625 196.613281 100.296875 196.621094 100.332031 196.632812 C 100.351562 196.640625 100.371094 196.648438 100.390625 196.652344 C 100.453125 196.671875 100.519531 196.679688 100.585938 196.679688 C 100.652344 196.679688 100.71875 196.671875 100.78125 196.652344 C 100.800781 196.648438 100.820312 196.640625 100.839844 196.632812 C 100.871094 196.621094 100.902344 196.613281 100.933594 196.597656 L 133.363281 180.382812 C 133.628906 180.25 133.796875 179.984375 133.796875 179.6875 L 133.796875 148.515625 L 165.101562 164.167969 C 165.164062 164.199219 165.234375 164.21875 165.304688 164.234375 C 165.324219 164.234375 165.339844 164.238281 165.359375 164.242188 C 165.386719 164.242188 165.417969 164.25 165.449219 164.25 C 165.472656 164.25 165.5 164.242188 165.523438 164.242188 C 165.546875 164.238281 165.566406 164.238281 165.585938 164.234375 C 165.65625 164.21875 165.722656 164.203125 165.789062 164.167969 C 165.792969 164.167969 165.792969 164.167969 165.796875 164.167969 L 198.226562 147.949219 C 198.492188 147.820312 198.65625 147.550781 198.65625 147.253906 L 198.65625 49.960938 C 198.65625 49.890625 198.648438 49.820312 198.628906 49.757812 " fill-opacity="1" fill-rule="nonzero"/></g><g clip-path="url(#ccf048568e)"><path fill="#33af91" d="M 165.601562 164.339844 L 133.566406 132.304688 C 133.34375 132.082031 133.007812 132.015625 132.71875 132.136719 C 132.429688 132.253906 132.238281 132.539062 132.238281 132.855469 L 132.238281 181.019531 L 101.363281 196.457031 L 101.363281 100.90625 L 132.863281 85.15625 L 164.898438 117.1875 C 164.945312 117.238281 165.003906 117.277344 165.0625 117.3125 C 165.078125 117.320312 165.09375 117.328125 165.109375 117.335938 C 165.167969 117.367188 165.230469 117.386719 165.292969 117.402344 C 165.292969 117.402344 165.296875 117.402344 165.296875 117.402344 C 165.347656 117.414062 165.398438 117.417969 165.449219 117.417969 C 165.464844 117.417969 165.480469 117.414062 165.5 117.414062 C 165.515625 117.410156 165.527344 117.410156 165.542969 117.410156 C 165.613281 117.398438 165.679688 117.386719 165.746094 117.359375 C 166.035156 117.238281 166.226562 116.953125 166.226562 116.640625 L 166.226562 68.472656 L 197.101562 53.035156 L 197.101562 148.589844 Z M 133.796875 148.589844 L 133.796875 134.734375 L 161.507812 162.445312 Z M 55.878906 155.214844 C 55.878906 155.214844 55.878906 155.210938 55.878906 155.210938 L 47.246094 137.953125 C 47.242188 137.9375 47.234375 137.925781 47.226562 137.910156 L 36.417969 116.292969 C 36.257812 115.96875 35.898438 115.800781 35.542969 115.882812 C 35.191406 115.964844 34.945312 116.277344 34.945312 116.640625 L 34.945312 164.027344 L 4.070312 148.589844 L 4.070312 53.035156 L 35.140625 68.574219 L 67.457031 133.203125 C 67.488281 133.265625 67.527344 133.316406 67.570312 133.367188 C 67.578125 133.375 67.585938 133.382812 67.59375 133.394531 C 67.636719 133.4375 67.683594 133.476562 67.738281 133.511719 C 67.746094 133.515625 67.757812 133.519531 67.765625 133.527344 C 67.820312 133.558594 67.878906 133.585938 67.941406 133.601562 C 67.941406 133.601562 67.941406 133.601562 67.941406 133.605469 C 68.003906 133.621094 68.066406 133.628906 68.132812 133.628906 C 68.140625 133.628906 68.144531 133.632812 68.152344 133.632812 C 68.160156 133.632812 68.167969 133.628906 68.175781 133.628906 C 68.226562 133.628906 68.28125 133.625 68.332031 133.613281 C 68.683594 133.527344 68.933594 133.214844 68.933594 132.855469 L 68.933594 85.46875 L 89.398438 95.699219 C 89.40625 95.707031 89.417969 95.710938 89.429688 95.71875 L 99.808594 100.90625 L 99.808594 196.457031 L 68.734375 180.921875 Z M 36.5 164.027344 L 36.5 119.9375 L 45.816406 138.566406 C 45.824219 138.582031 45.828125 138.59375 45.835938 138.609375 L 54.136719 155.210938 Z M 35.722656 36.429688 L 66.414062 51.777344 L 35.722656 67.121094 L 5.03125 51.777344 Z M 100.585938 4 L 131.277344 19.34375 L 100.585938 34.691406 L 69.894531 19.34375 Z M 132.667969 51.082031 C 132.65625 51.085938 132.648438 51.09375 132.640625 51.097656 C 132.628906 51.105469 132.617188 51.109375 132.609375 51.113281 C 132.582031 51.128906 132.566406 51.148438 132.542969 51.167969 C 132.519531 51.183594 132.496094 51.203125 132.472656 51.222656 C 132.445312 51.25 132.421875 51.28125 132.394531 51.316406 C 132.378906 51.339844 132.363281 51.359375 132.347656 51.382812 C 132.324219 51.421875 132.308594 51.464844 132.292969 51.503906 C 132.285156 51.527344 132.273438 51.546875 132.265625 51.570312 C 132.25 51.636719 132.238281 51.707031 132.238281 51.777344 L 132.238281 82.949219 L 122.785156 78.21875 L 101.628906 35.910156 L 132.667969 20.390625 L 144.945312 44.941406 Z M 165.449219 36.429688 L 196.136719 51.777344 L 165.449219 67.121094 L 154.988281 61.890625 C 154.976562 61.882812 154.964844 61.878906 154.949219 61.875 L 134.757812 51.777344 L 146.335938 45.988281 C 146.339844 45.984375 146.339844 45.984375 146.339844 45.984375 Z M 133.796875 83.886719 L 133.796875 53.035156 L 154.246094 63.261719 C 154.261719 63.269531 154.273438 63.277344 154.289062 63.285156 L 164.667969 68.472656 L 164.667969 114.761719 Z M 99.582031 99.050781 L 90.125 94.324219 C 90.125 94.320312 90.125 94.320312 90.125 94.320312 L 69.894531 84.207031 L 100.585938 68.863281 L 121.824219 79.480469 C 121.835938 79.488281 121.847656 79.496094 121.859375 79.5 L 131.277344 84.207031 L 100.585938 99.554688 Z M 67.375 129.558594 L 36.765625 68.339844 L 67.804688 52.820312 L 73.945312 65.097656 L 80.082031 77.375 L 67.804688 83.511719 C 67.796875 83.515625 67.789062 83.523438 67.777344 83.53125 C 67.769531 83.535156 67.753906 83.539062 67.746094 83.546875 C 67.71875 83.5625 67.703125 83.582031 67.679688 83.597656 C 67.65625 83.617188 67.632812 83.632812 67.613281 83.65625 C 67.582031 83.683594 67.558594 83.714844 67.535156 83.746094 C 67.519531 83.769531 67.5 83.789062 67.484375 83.8125 C 67.464844 83.851562 67.445312 83.894531 67.429688 83.9375 C 67.421875 83.960938 67.410156 83.980469 67.40625 84.003906 C 67.386719 84.066406 67.375 84.136719 67.375 84.207031 Z M 94.695312 33.484375 L 100.003906 36.140625 L 106.097656 48.324219 L 120.464844 77.0625 L 100.933594 67.296875 C 100.714844 67.1875 100.457031 67.1875 100.238281 67.296875 L 81.476562 76.675781 L 68.933594 51.59375 L 68.933594 20.605469 Z M 198.628906 51.570312 C 198.621094 51.546875 198.613281 51.527344 198.601562 51.503906 C 198.585938 51.460938 198.570312 51.421875 198.550781 51.382812 C 198.535156 51.359375 198.515625 51.339844 198.5 51.316406 C 198.476562 51.28125 198.449219 51.25 198.421875 51.222656 C 198.402344 51.203125 198.378906 51.183594 198.351562 51.167969 C 198.332031 51.148438 198.3125 51.128906 198.289062 51.113281 C 198.277344 51.109375 198.265625 51.105469 198.253906 51.097656 C 198.246094 51.09375 198.238281 51.085938 198.226562 51.082031 L 165.796875 34.863281 C 165.578125 34.753906 165.320312 34.753906 165.101562 34.863281 L 146.335938 44.246094 L 133.710938 18.996094 C 133.707031 18.984375 133.695312 18.972656 133.6875 18.960938 C 133.679688 18.945312 133.667969 18.929688 133.660156 18.914062 C 133.628906 18.867188 133.597656 18.828125 133.5625 18.792969 C 133.550781 18.785156 133.542969 18.773438 133.535156 18.765625 C 133.484375 18.722656 133.433594 18.6875 133.375 18.65625 C 133.371094 18.65625 133.367188 18.652344 133.363281 18.648438 L 100.933594 2.433594 C 100.714844 2.324219 100.457031 2.324219 100.238281 2.433594 L 67.804688 18.648438 C 67.796875 18.652344 67.789062 18.660156 67.777344 18.667969 C 67.769531 18.675781 67.753906 18.675781 67.746094 18.683594 C 67.71875 18.699219 67.703125 18.71875 67.679688 18.734375 C 67.65625 18.753906 67.632812 18.769531 67.613281 18.789062 C 67.582031 18.820312 67.558594 18.851562 67.535156 18.886719 C 67.519531 18.90625 67.5 18.929688 67.484375 18.953125 C 67.464844 18.988281 67.445312 19.03125 67.429688 19.074219 C 67.421875 19.097656 67.410156 19.117188 67.40625 19.140625 C 67.386719 19.207031 67.375 19.273438 67.375 19.34375 L 67.375 50.515625 L 36.070312 34.863281 C 35.851562 34.753906 35.59375 34.753906 35.375 34.863281 L 2.945312 51.082031 C 2.933594 51.085938 2.925781 51.09375 2.914062 51.097656 C 2.90625 51.105469 2.894531 51.109375 2.882812 51.113281 C 2.859375 51.128906 2.839844 51.148438 2.816406 51.167969 C 2.792969 51.183594 2.769531 51.203125 2.75 51.222656 C 2.71875 51.25 2.695312 51.285156 2.671875 51.316406 C 2.652344 51.339844 2.636719 51.359375 2.625 51.382812 C 2.597656 51.421875 2.582031 51.464844 2.566406 51.507812 C 2.558594 51.527344 2.546875 51.546875 2.542969 51.570312 C 2.523438 51.636719 2.511719 51.707031 2.511719 51.777344 L 2.511719 149.070312 C 2.511719 149.367188 2.679688 149.632812 2.945312 149.765625 L 35.375 165.980469 C 35.398438 165.996094 35.425781 166 35.453125 166.007812 C 35.480469 166.019531 35.507812 166.03125 35.539062 166.039062 C 35.574219 166.046875 35.613281 166.050781 35.652344 166.054688 C 35.675781 166.058594 35.699219 166.066406 35.722656 166.066406 C 35.730469 166.066406 35.738281 166.0625 35.742188 166.0625 C 35.765625 166.0625 35.785156 166.058594 35.808594 166.054688 C 35.847656 166.050781 35.886719 166.042969 35.929688 166.035156 C 35.949219 166.027344 35.972656 166.019531 36 166.007812 C 36.023438 166 36.046875 165.992188 36.070312 165.980469 L 54.832031 156.601562 L 67.457031 181.847656 C 67.535156 182 67.65625 182.121094 67.804688 182.199219 L 100.238281 198.414062 C 100.265625 198.429688 100.296875 198.4375 100.332031 198.445312 C 100.351562 198.453125 100.371094 198.464844 100.390625 198.46875 C 100.453125 198.484375 100.519531 198.496094 100.585938 198.496094 C 100.652344 198.496094 100.71875 198.484375 100.78125 198.46875 C 100.800781 198.464844 100.820312 198.453125 100.839844 198.445312 C 100.871094 198.4375 100.902344 198.429688 100.933594 198.414062 L 133.363281 182.199219 C 133.628906 182.066406 133.796875 181.796875 133.796875 181.5 L 133.796875 150.328125 L 165.101562 165.980469 C 165.164062 166.015625 165.234375 166.035156 165.304688 166.046875 C 165.324219 166.050781 165.339844 166.050781 165.359375 166.054688 C 165.386719 166.058594 165.417969 166.066406 165.449219 166.066406 C 165.472656 166.066406 165.5 166.058594 165.523438 166.054688 C 165.546875 166.054688 165.566406 166.050781 165.585938 166.046875 C 165.65625 166.035156 165.722656 166.015625 165.789062 165.984375 C 165.792969 165.984375 165.792969 165.984375 165.796875 165.980469 L 198.226562 149.765625 C 198.492188 149.632812 198.65625 149.367188 198.65625 149.070312 L 198.65625 51.777344 C 198.65625 51.707031 198.648438 51.636719 198.628906 51.570312 " fill-opacity="1" fill-rule="nonzero"/></g><g clip-path="url(#7f3b08170d)"><path fill="#33af91" d="M 165.601562 162.523438 L 133.566406 130.488281 C 133.34375 130.265625 133.007812 130.199219 132.71875 130.320312 C 132.429688 130.441406 132.238281 130.722656 132.238281 131.039062 L 132.238281 179.207031 L 101.363281 194.644531 L 101.363281 99.089844 L 132.863281 83.339844 L 164.898438 115.375 C 164.945312 115.425781 165.003906 115.464844 165.0625 115.496094 C 165.078125 115.503906 165.09375 115.511719 165.109375 115.519531 C 165.167969 115.550781 165.230469 115.574219 165.292969 115.585938 C 165.292969 115.585938 165.296875 115.585938 165.296875 115.585938 C 165.347656 115.597656 165.398438 115.601562 165.449219 115.601562 C 165.464844 115.601562 165.480469 115.597656 165.5 115.597656 C 165.515625 115.597656 165.527344 115.59375 165.542969 115.59375 C 165.613281 115.585938 165.679688 115.570312 165.746094 115.542969 C 166.035156 115.421875 166.226562 115.140625 166.226562 114.824219 L 166.226562 66.660156 L 197.101562 51.222656 L 197.101562 146.773438 Z M 133.796875 146.773438 L 133.796875 132.917969 L 161.507812 160.628906 Z M 55.878906 153.398438 C 55.878906 153.398438 55.878906 153.394531 55.878906 153.394531 L 47.246094 136.136719 C 47.242188 136.121094 47.234375 136.109375 47.226562 136.09375 L 36.417969 114.476562 C 36.257812 114.152344 35.898438 113.984375 35.542969 114.066406 C 35.191406 114.148438 34.945312 114.460938 34.945312 114.824219 L 34.945312 162.210938 L 4.070312 146.773438 L 4.070312 51.222656 L 35.140625 66.757812 L 67.457031 131.386719 C 67.488281 131.449219 67.527344 131.503906 67.570312 131.550781 C 67.578125 131.558594 67.585938 131.570312 67.59375 131.578125 C 67.636719 131.621094 67.683594 131.660156 67.738281 131.695312 C 67.746094 131.699219 67.757812 131.707031 67.765625 131.710938 C 67.820312 131.742188 67.878906 131.769531 67.941406 131.789062 C 68.003906 131.804688 68.066406 131.8125 68.132812 131.816406 C 68.140625 131.816406 68.144531 131.816406 68.152344 131.816406 C 68.160156 131.816406 68.167969 131.816406 68.175781 131.816406 C 68.226562 131.8125 68.28125 131.808594 68.332031 131.796875 C 68.683594 131.714844 68.933594 131.402344 68.933594 131.039062 L 68.933594 83.652344 L 89.398438 93.886719 C 89.40625 93.890625 89.417969 93.894531 89.429688 93.902344 L 99.808594 99.089844 L 99.808594 194.644531 L 68.734375 179.105469 Z M 36.5 162.210938 L 36.5 118.121094 L 45.816406 136.753906 C 45.824219 136.765625 45.828125 136.78125 45.835938 136.792969 L 54.136719 153.394531 Z M 35.722656 34.617188 L 66.414062 49.960938 L 35.722656 65.308594 L 5.03125 49.960938 Z M 100.585938 2.183594 L 131.277344 17.53125 L 100.585938 32.875 L 69.894531 17.53125 Z M 132.667969 49.265625 C 132.65625 49.269531 132.648438 49.277344 132.640625 49.285156 C 132.628906 49.289062 132.617188 49.292969 132.609375 49.300781 C 132.582031 49.316406 132.566406 49.335938 132.542969 49.351562 C 132.519531 49.371094 132.496094 49.386719 132.472656 49.410156 C 132.445312 49.4375 132.421875 49.46875 132.394531 49.5 C 132.378906 49.523438 132.363281 49.542969 132.347656 49.566406 C 132.324219 49.605469 132.308594 49.648438 132.292969 49.691406 C 132.285156 49.710938 132.273438 49.734375 132.265625 49.757812 C 132.25 49.820312 132.238281 49.890625 132.238281 49.960938 L 132.238281 81.132812 L 122.785156 76.402344 L 101.628906 34.09375 L 132.667969 18.574219 L 144.945312 43.128906 Z M 165.449219 34.617188 L 196.136719 49.960938 L 165.449219 65.308594 L 154.988281 60.074219 C 154.976562 60.070312 154.964844 60.0625 154.949219 60.058594 L 134.757812 49.960938 L 146.335938 44.171875 C 146.339844 44.171875 146.339844 44.171875 146.339844 44.171875 Z M 133.796875 82.070312 L 133.796875 51.222656 L 154.246094 61.445312 C 154.261719 61.453125 154.273438 61.464844 154.289062 61.46875 L 164.667969 66.660156 L 164.667969 112.945312 Z M 99.582031 97.238281 L 90.125 92.507812 L 69.894531 82.394531 L 100.585938 67.046875 L 121.824219 77.667969 C 121.835938 77.671875 121.847656 77.679688 121.859375 77.683594 L 131.277344 82.394531 L 100.585938 97.738281 Z M 67.375 127.742188 L 36.765625 66.523438 L 67.804688 51.003906 L 73.945312 63.28125 L 80.082031 75.558594 L 67.804688 81.695312 C 67.796875 81.703125 67.789062 81.710938 67.777344 81.714844 C 67.769531 81.722656 67.753906 81.726562 67.746094 81.730469 C 67.71875 81.746094 67.703125 81.765625 67.679688 81.78125 C 67.65625 81.800781 67.632812 81.816406 67.613281 81.839844 C 67.582031 81.867188 67.558594 81.898438 67.535156 81.933594 C 67.519531 81.953125 67.5 81.976562 67.484375 82 C 67.464844 82.039062 67.445312 82.082031 67.429688 82.121094 C 67.421875 82.144531 67.410156 82.164062 67.40625 82.1875 C 67.386719 82.253906 67.375 82.324219 67.375 82.394531 Z M 94.695312 31.671875 L 100.003906 34.328125 L 106.097656 46.511719 L 120.464844 75.246094 L 100.933594 65.480469 C 100.714844 65.371094 100.457031 65.371094 100.238281 65.480469 L 81.476562 74.863281 L 68.933594 49.777344 L 68.933594 18.789062 Z M 198.628906 49.757812 C 198.621094 49.734375 198.613281 49.710938 198.601562 49.691406 C 198.585938 49.648438 198.570312 49.605469 198.550781 49.566406 C 198.535156 49.542969 198.515625 49.523438 198.5 49.5 C 198.476562 49.46875 198.449219 49.4375 198.421875 49.410156 C 198.402344 49.386719 198.378906 49.371094 198.351562 49.351562 C 198.332031 49.335938 198.3125 49.316406 198.289062 49.300781 C 198.277344 49.292969 198.265625 49.289062 198.253906 49.285156 C 198.246094 49.277344 198.238281 49.269531 198.226562 49.265625 L 165.796875 33.050781 C 165.578125 32.941406 165.320312 32.941406 165.101562 33.050781 L 146.335938 42.429688 L 133.710938 17.183594 C 133.707031 17.167969 133.695312 17.15625 133.6875 17.144531 C 133.679688 17.128906 133.667969 17.113281 133.660156 17.097656 C 133.628906 17.054688 133.597656 17.015625 133.5625 16.976562 C 133.550781 16.96875 133.542969 16.960938 133.535156 16.949219 C 133.484375 16.90625 133.433594 16.871094 133.375 16.84375 C 133.371094 16.839844 133.367188 16.835938 133.363281 16.835938 L 100.933594 0.617188 C 100.714844 0.507812 100.457031 0.507812 100.238281 0.617188 L 67.804688 16.835938 C 67.796875 16.839844 67.789062 16.847656 67.777344 16.851562 C 67.769531 16.859375 67.753906 16.859375 67.746094 16.867188 C 67.71875 16.882812 67.703125 16.902344 67.679688 16.921875 C 67.65625 16.9375 67.632812 16.957031 67.613281 16.976562 C 67.582031 17.003906 67.558594 17.035156 67.535156 17.070312 C 67.519531 17.09375 67.5 17.113281 67.484375 17.136719 C 67.464844 17.175781 67.445312 17.21875 67.429688 17.257812 C 67.421875 17.28125 67.410156 17.300781 67.40625 17.324219 C 67.386719 17.390625 67.375 17.460938 67.375 17.53125 L 67.375 48.703125 L 36.070312 33.050781 C 35.851562 32.941406 35.59375 32.941406 35.375 33.050781 L 2.945312 49.265625 C 2.933594 49.269531 2.925781 49.28125 2.914062 49.285156 C 2.90625 49.289062 2.894531 49.292969 2.882812 49.300781 C 2.859375 49.316406 2.839844 49.335938 2.816406 49.351562 C 2.792969 49.371094 2.769531 49.386719 2.75 49.410156 C 2.71875 49.4375 2.695312 49.46875 2.671875 49.5 C 2.652344 49.523438 2.636719 49.542969 2.625 49.566406 C 2.597656 49.609375 2.582031 49.648438 2.566406 49.691406 C 2.558594 49.714844 2.546875 49.734375 2.542969 49.753906 C 2.523438 49.820312 2.511719 49.890625 2.511719 49.960938 L 2.511719 147.253906 C 2.511719 147.550781 2.679688 147.820312 2.945312 147.949219 L 35.375 164.167969 C 35.398438 164.179688 35.425781 164.183594 35.453125 164.195312 C 35.480469 164.203125 35.507812 164.21875 35.539062 164.222656 C 35.574219 164.234375 35.613281 164.234375 35.652344 164.242188 C 35.675781 164.242188 35.699219 164.25 35.722656 164.25 C 35.730469 164.25 35.738281 164.246094 35.742188 164.246094 C 35.765625 164.246094 35.785156 164.242188 35.808594 164.242188 C 35.847656 164.234375 35.886719 164.230469 35.929688 164.21875 C 35.949219 164.210938 35.972656 164.203125 36 164.195312 C 36.023438 164.183594 36.046875 164.179688 36.070312 164.167969 L 54.832031 154.785156 L 67.457031 180.035156 C 67.535156 180.183594 67.65625 180.308594 67.804688 180.382812 L 100.238281 196.597656 C 100.265625 196.613281 100.296875 196.621094 100.332031 196.632812 C 100.351562 196.640625 100.371094 196.648438 100.390625 196.652344 C 100.453125 196.671875 100.519531 196.679688 100.585938 196.679688 C 100.652344 196.679688 100.71875 196.671875 100.78125 196.652344 C 100.800781 196.648438 100.820312 196.640625 100.839844 196.632812 C 100.871094 196.621094 100.902344 196.613281 100.933594 196.597656 L 133.363281 180.382812 C 133.628906 180.25 133.796875 179.984375 133.796875 179.6875 L 133.796875 148.515625 L 165.101562 164.167969 C 165.164062 164.199219 165.234375 164.21875 165.304688 164.234375 C 165.324219 164.234375 165.339844 164.238281 165.359375 164.242188 C 165.386719 164.242188 165.417969 164.25 165.449219 164.25 C 165.472656 164.25 165.5 164.242188 165.523438 164.242188 C 165.546875 164.238281 165.566406 164.238281 165.585938 164.234375 C 165.65625 164.21875 165.722656 164.203125 165.789062 164.167969 C 165.792969 164.167969 165.792969 164.167969 165.796875 164.167969 L 198.226562 147.949219 C 198.492188 147.820312 198.65625 147.550781 198.65625 147.253906 L 198.65625 49.960938 C 198.65625 49.890625 198.648438 49.820312 198.628906 49.757812 " fill-opacity="1" fill-rule="nonzero"/></g><g clip-path="url(#e6e0bd2a70)"><path fill="#33af91" d="M 163.421875 162.523438 L 131.390625 130.488281 C 131.167969 130.265625 130.832031 130.199219 130.539062 130.320312 C 130.25 130.441406 130.058594 130.722656 130.058594 131.039062 L 130.058594 179.207031 L 99.1875 194.644531 L 99.1875 99.089844 L 130.683594 83.339844 L 162.71875 115.375 C 162.769531 115.425781 162.828125 115.464844 162.886719 115.496094 C 162.898438 115.503906 162.914062 115.511719 162.929688 115.519531 C 162.988281 115.550781 163.050781 115.574219 163.117188 115.585938 C 163.167969 115.597656 163.21875 115.601562 163.269531 115.601562 C 163.285156 115.601562 163.304688 115.597656 163.320312 115.597656 C 163.335938 115.597656 163.351562 115.59375 163.367188 115.59375 C 163.433594 115.585938 163.503906 115.570312 163.570312 115.542969 C 163.859375 115.421875 164.046875 115.140625 164.046875 114.824219 L 164.046875 66.660156 L 194.921875 51.222656 L 194.921875 146.773438 Z M 131.617188 146.773438 L 131.617188 132.917969 L 159.328125 160.628906 Z M 53.703125 153.398438 C 53.703125 153.398438 53.699219 153.394531 53.699219 153.394531 L 45.070312 136.136719 C 45.0625 136.121094 45.058594 136.109375 45.050781 136.09375 L 34.242188 114.476562 C 34.078125 114.152344 33.71875 113.984375 33.367188 114.066406 C 33.015625 114.148438 32.765625 114.460938 32.765625 114.824219 L 32.765625 162.210938 L 1.890625 146.773438 L 1.890625 51.222656 L 32.964844 66.757812 L 65.28125 131.386719 C 65.3125 131.449219 65.347656 131.503906 65.390625 131.550781 C 65.398438 131.558594 65.40625 131.570312 65.414062 131.578125 C 65.460938 131.621094 65.507812 131.660156 65.558594 131.695312 C 65.570312 131.699219 65.578125 131.707031 65.589844 131.710938 C 65.644531 131.742188 65.699219 131.769531 65.761719 131.789062 C 65.761719 131.789062 65.761719 131.789062 65.765625 131.789062 C 65.824219 131.804688 65.886719 131.8125 65.953125 131.816406 C 65.960938 131.816406 65.96875 131.816406 65.976562 131.816406 C 65.980469 131.816406 65.988281 131.816406 65.996094 131.816406 C 66.046875 131.8125 66.101562 131.808594 66.15625 131.796875 C 66.507812 131.714844 66.753906 131.402344 66.753906 131.039062 L 66.753906 83.652344 L 87.222656 93.886719 C 87.230469 93.890625 87.238281 93.894531 87.25 93.902344 L 97.628906 99.089844 L 97.628906 194.644531 L 66.558594 179.105469 Z M 34.324219 162.210938 L 34.324219 118.121094 L 43.636719 136.753906 C 43.644531 136.765625 43.652344 136.78125 43.660156 136.792969 L 51.957031 153.394531 Z M 33.542969 34.617188 L 64.234375 49.960938 L 33.542969 65.308594 L 2.855469 49.960938 Z M 98.40625 2.183594 L 129.097656 17.53125 L 98.40625 32.875 L 67.714844 17.53125 Z M 130.492188 49.265625 C 130.480469 49.269531 130.472656 49.277344 130.464844 49.285156 C 130.453125 49.289062 130.441406 49.292969 130.429688 49.300781 C 130.40625 49.316406 130.386719 49.335938 130.363281 49.351562 C 130.339844 49.371094 130.316406 49.386719 130.296875 49.410156 C 130.265625 49.4375 130.242188 49.46875 130.21875 49.5 C 130.203125 49.523438 130.183594 49.542969 130.167969 49.566406 C 130.144531 49.605469 130.128906 49.648438 130.117188 49.691406 C 130.109375 49.710938 130.09375 49.734375 130.089844 49.757812 C 130.070312 49.820312 130.058594 49.890625 130.058594 49.960938 L 130.058594 81.132812 L 120.605469 76.402344 L 99.449219 34.09375 L 100.089844 33.773438 L 130.492188 18.574219 L 142.765625 43.128906 Z M 163.269531 34.617188 L 193.960938 49.960938 L 163.269531 65.308594 L 152.808594 60.074219 C 152.796875 60.070312 152.785156 60.0625 152.773438 60.058594 L 132.578125 49.960938 L 144.160156 44.171875 C 144.160156 44.171875 144.160156 44.171875 144.164062 44.171875 Z M 131.617188 82.070312 L 131.617188 51.222656 L 152.070312 61.445312 C 152.082031 61.453125 152.097656 61.464844 152.113281 61.46875 L 162.492188 66.660156 L 162.492188 112.945312 Z M 97.402344 97.238281 L 87.949219 92.507812 C 87.949219 92.507812 87.949219 92.507812 87.945312 92.507812 L 67.714844 82.394531 L 98.40625 67.046875 L 119.644531 77.667969 C 119.65625 77.671875 119.667969 77.679688 119.679688 77.683594 L 129.097656 82.394531 L 98.40625 97.738281 Z M 65.199219 127.742188 L 34.589844 66.523438 L 65.628906 51.003906 L 77.902344 75.558594 L 65.628906 81.695312 C 65.617188 81.703125 65.609375 81.710938 65.601562 81.714844 C 65.589844 81.722656 65.578125 81.726562 65.566406 81.730469 C 65.542969 81.746094 65.523438 81.765625 65.503906 81.78125 C 65.476562 81.800781 65.453125 81.816406 65.433594 81.839844 C 65.40625 81.867188 65.378906 81.898438 65.355469 81.933594 C 65.339844 81.953125 65.320312 81.976562 65.304688 82 C 65.285156 82.039062 65.269531 82.082031 65.253906 82.121094 C 65.246094 82.144531 65.234375 82.164062 65.226562 82.1875 C 65.207031 82.253906 65.199219 82.324219 65.199219 82.394531 Z M 92.515625 31.671875 L 97.828125 34.328125 L 103.917969 46.511719 L 118.285156 75.246094 L 98.753906 65.480469 C 98.535156 65.371094 98.277344 65.371094 98.058594 65.480469 L 79.296875 74.863281 L 66.753906 49.777344 L 66.753906 18.789062 Z M 196.449219 49.757812 C 196.445312 49.734375 196.433594 49.710938 196.425781 49.691406 C 196.410156 49.648438 196.390625 49.605469 196.371094 49.566406 C 196.355469 49.542969 196.339844 49.523438 196.320312 49.5 C 196.296875 49.46875 196.273438 49.4375 196.242188 49.410156 C 196.222656 49.386719 196.199219 49.371094 196.175781 49.351562 C 196.152344 49.335938 196.136719 49.316406 196.109375 49.300781 C 196.101562 49.292969 196.085938 49.289062 196.078125 49.285156 C 196.066406 49.277344 196.058594 49.269531 196.050781 49.265625 L 163.617188 33.050781 C 163.398438 32.941406 163.140625 32.941406 162.921875 33.050781 L 144.160156 42.429688 L 131.535156 17.183594 C 131.527344 17.167969 131.519531 17.15625 131.511719 17.144531 C 131.503906 17.128906 131.492188 17.113281 131.480469 17.097656 C 131.453125 17.054688 131.417969 17.015625 131.382812 16.976562 C 131.375 16.96875 131.367188 16.960938 131.355469 16.949219 C 131.308594 16.90625 131.253906 16.871094 131.199219 16.84375 C 131.195312 16.839844 131.191406 16.835938 131.1875 16.835938 L 98.753906 0.617188 C 98.535156 0.507812 98.277344 0.507812 98.058594 0.617188 L 65.628906 16.835938 C 65.617188 16.839844 65.609375 16.847656 65.601562 16.851562 C 65.589844 16.859375 65.578125 16.859375 65.566406 16.867188 C 65.542969 16.882812 65.523438 16.902344 65.503906 16.921875 C 65.476562 16.9375 65.453125 16.957031 65.433594 16.976562 C 65.40625 17.003906 65.378906 17.035156 65.355469 17.070312 C 65.339844 17.09375 65.320312 17.113281 65.304688 17.136719 C 65.285156 17.175781 65.269531 17.21875 65.253906 17.257812 C 65.246094 17.28125 65.234375 17.300781 65.226562 17.324219 C 65.207031 17.390625 65.199219 17.460938 65.199219 17.53125 L 65.199219 48.703125 L 33.890625 33.050781 C 33.671875 32.941406 33.414062 32.941406 33.195312 33.050781 L 0.765625 49.265625 C 0.753906 49.269531 0.746094 49.28125 0.738281 49.285156 C 0.726562 49.289062 0.714844 49.292969 0.703125 49.300781 C 0.679688 49.316406 0.660156 49.335938 0.640625 49.351562 C 0.617188 49.371094 0.59375 49.386719 0.570312 49.410156 C 0.542969 49.4375 0.515625 49.46875 0.492188 49.5 C 0.476562 49.523438 0.457031 49.542969 0.445312 49.566406 C 0.421875 49.609375 0.40625 49.648438 0.386719 49.691406 C 0.382812 49.714844 0.371094 49.734375 0.363281 49.753906 C 0.34375 49.820312 0.335938 49.890625 0.335938 49.960938 L 0.335938 147.253906 C 0.335938 147.550781 0.503906 147.820312 0.765625 147.949219 L 33.195312 164.167969 C 33.222656 164.179688 33.25 164.183594 33.277344 164.195312 C 33.304688 164.203125 33.332031 164.21875 33.359375 164.222656 C 33.398438 164.234375 33.4375 164.234375 33.476562 164.242188 C 33.5 164.242188 33.523438 164.25 33.542969 164.25 C 33.550781 164.25 33.558594 164.246094 33.566406 164.246094 C 33.585938 164.246094 33.609375 164.242188 33.628906 164.242188 C 33.671875 164.234375 33.710938 164.230469 33.75 164.21875 C 33.773438 164.210938 33.796875 164.203125 33.820312 164.195312 C 33.84375 164.183594 33.871094 164.179688 33.890625 164.167969 L 52.65625 154.785156 L 65.28125 180.035156 C 65.355469 180.183594 65.476562 180.308594 65.628906 180.382812 L 98.058594 196.597656 C 98.089844 196.613281 98.121094 196.621094 98.152344 196.632812 C 98.171875 196.640625 98.191406 196.648438 98.210938 196.652344 C 98.277344 196.671875 98.339844 196.679688 98.40625 196.679688 C 98.472656 196.679688 98.539062 196.671875 98.601562 196.652344 C 98.625 196.648438 98.640625 196.640625 98.660156 196.632812 C 98.695312 196.621094 98.726562 196.613281 98.753906 196.597656 L 131.1875 180.382812 C 131.449219 180.25 131.617188 179.984375 131.617188 179.6875 L 131.617188 148.515625 L 162.921875 164.167969 C 162.988281 164.199219 163.058594 164.21875 163.125 164.234375 C 163.144531 164.234375 163.164062 164.238281 163.179688 164.242188 C 163.210938 164.242188 163.242188 164.25 163.269531 164.25 C 163.296875 164.25 163.320312 164.242188 163.34375 164.242188 C 163.367188 164.238281 163.386719 164.238281 163.40625 164.234375 C 163.476562 164.21875 163.546875 164.203125 163.609375 164.167969 C 163.613281 164.167969 163.617188 164.167969 163.617188 164.167969 L 196.050781 147.949219 C 196.3125 147.820312 196.480469 147.550781 196.480469 147.253906 L 196.480469 49.960938 C 196.480469 49.890625 196.46875 49.820312 196.449219 49.757812 " fill-opacity="1" fill-rule="nonzero"/><path fill="#33af91" d="M 163.421875 162.523438 L 131.390625 130.488281 C 131.167969 130.265625 130.832031 130.199219 130.539062 130.320312 C 130.25 130.441406 130.058594 130.722656 130.058594 131.039062 L 130.058594 179.207031 L 99.1875 194.644531 L 99.1875 99.089844 L 130.683594 83.339844 L 162.71875 115.375 C 162.769531 115.425781 162.828125 115.464844 162.886719 115.496094 C 162.898438 115.503906 162.914062 115.511719 162.929688 115.519531 C 162.988281 115.550781 163.050781 115.574219 163.117188 115.585938 C 163.167969 115.597656 163.21875 115.601562 163.269531 115.601562 C 163.285156 115.601562 163.304688 115.597656 163.320312 115.597656 C 163.335938 115.597656 163.351562 115.59375 163.367188 115.59375 C 163.433594 115.585938 163.503906 115.570312 163.570312 115.542969 C 163.859375 115.421875 164.046875 115.140625 164.046875 114.824219 L 164.046875 66.660156 L 194.921875 51.222656 L 194.921875 146.773438 Z M 131.617188 146.773438 L 131.617188 132.917969 L 159.328125 160.628906 Z M 53.703125 153.398438 C 53.703125 153.398438 53.699219 153.394531 53.699219 153.394531 L 45.070312 136.136719 C 45.0625 136.121094 45.058594 136.109375 45.050781 136.09375 L 34.242188 114.476562 C 34.078125 114.152344 33.71875 113.984375 33.367188 114.066406 C 33.015625 114.148438 32.765625 114.460938 32.765625 114.824219 L 32.765625 162.210938 L 1.890625 146.773438 L 1.890625 51.222656 L 32.964844 66.757812 L 65.28125 131.386719 C 65.3125 131.449219 65.347656 131.503906 65.390625 131.550781 C 65.398438 131.558594 65.40625 131.570312 65.414062 131.578125 C 65.460938 131.621094 65.507812 131.660156 65.558594 131.695312 C 65.570312 131.699219 65.578125 131.707031 65.589844 131.710938 C 65.644531 131.742188 65.699219 131.769531 65.761719 131.789062 C 65.761719 131.789062 65.761719 131.789062 65.765625 131.789062 C 65.824219 131.804688 65.886719 131.8125 65.953125 131.816406 C 65.960938 131.816406 65.96875 131.816406 65.976562 131.816406 C 65.980469 131.816406 65.988281 131.816406 65.996094 131.816406 C 66.046875 131.8125 66.101562 131.808594 66.15625 131.796875 C 66.507812 131.714844 66.753906 131.402344 66.753906 131.039062 L 66.753906 83.652344 L 87.222656 93.886719 C 87.230469 93.890625 87.238281 93.894531 87.25 93.902344 L 97.628906 99.089844 L 97.628906 194.644531 L 66.558594 179.105469 Z M 34.324219 162.210938 L 34.324219 118.121094 L 43.636719 136.753906 C 43.644531 136.765625 43.652344 136.78125 43.660156 136.792969 L 51.957031 153.394531 Z M 33.542969 34.617188 L 64.234375 49.960938 L 33.542969 65.308594 L 2.855469 49.960938 Z M 98.40625 2.183594 L 129.097656 17.53125 L 98.40625 32.875 L 67.714844 17.53125 Z M 130.492188 49.265625 C 130.480469 49.269531 130.472656 49.277344 130.464844 49.285156 C 130.453125 49.289062 130.441406 49.292969 130.429688 49.300781 C 130.40625 49.316406 130.386719 49.335938 130.363281 49.351562 C 130.339844 49.371094 130.316406 49.386719 130.296875 49.410156 C 130.265625 49.4375 130.242188 49.46875 130.21875 49.5 C 130.203125 49.523438 130.183594 49.542969 130.167969 49.566406 C 130.144531 49.605469 130.128906 49.648438 130.117188 49.691406 C 130.109375 49.710938 130.09375 49.734375 130.089844 49.757812 C 130.070312 49.820312 130.058594 49.890625 130.058594 49.960938 L 130.058594 81.132812 L 120.605469 76.402344 L 99.449219 34.09375 L 100.089844 33.773438 L 130.492188 18.574219 L 142.765625 43.128906 Z M 163.269531 34.617188 L 193.960938 49.960938 L 163.269531 65.308594 L 152.808594 60.074219 C 152.796875 60.070312 152.785156 60.0625 152.773438 60.058594 L 132.578125 49.960938 L 144.160156 44.171875 C 144.160156 44.171875 144.160156 44.171875 144.164062 44.171875 Z M 131.617188 82.070312 L 131.617188 51.222656 L 152.070312 61.445312 C 152.082031 61.453125 152.097656 61.464844 152.113281 61.46875 L 162.492188 66.660156 L 162.492188 112.945312 Z M 97.402344 97.238281 L 87.949219 92.507812 C 87.949219 92.507812 87.949219 92.507812 87.945312 92.507812 L 67.714844 82.394531 L 98.40625 67.046875 L 119.644531 77.667969 C 119.65625 77.671875 119.667969 77.679688 119.679688 77.683594 L 129.097656 82.394531 L 98.40625 97.738281 Z M 65.199219 127.742188 L 34.589844 66.523438 L 65.628906 51.003906 L 77.902344 75.558594 L 65.628906 81.695312 C 65.617188 81.703125 65.609375 81.710938 65.601562 81.714844 C 65.589844 81.722656 65.578125 81.726562 65.566406 81.730469 C 65.542969 81.746094 65.523438 81.765625 65.503906 81.78125 C 65.476562 81.800781 65.453125 81.816406 65.433594 81.839844 C 65.40625 81.867188 65.378906 81.898438 65.355469 81.933594 C 65.339844 81.953125 65.320312 81.976562 65.304688 82 C 65.285156 82.039062 65.269531 82.082031 65.253906 82.121094 C 65.246094 82.144531 65.234375 82.164062 65.226562 82.1875 C 65.207031 82.253906 65.199219 82.324219 65.199219 82.394531 Z M 92.515625 31.671875 L 97.828125 34.328125 L 103.917969 46.511719 L 118.285156 75.246094 L 98.753906 65.480469 C 98.535156 65.371094 98.277344 65.371094 98.058594 65.480469 L 79.296875 74.863281 L 66.753906 49.777344 L 66.753906 18.789062 Z M 196.449219 49.757812 C 196.445312 49.734375 196.433594 49.710938 196.425781 49.691406 C 196.410156 49.648438 196.390625 49.605469 196.371094 49.566406 C 196.355469 49.542969 196.339844 49.523438 196.320312 49.5 C 196.296875 49.46875 196.273438 49.4375 196.242188 49.410156 C 196.222656 49.386719 196.199219 49.371094 196.175781 49.351562 C 196.152344 49.335938 196.136719 49.316406 196.109375 49.300781 C 196.101562 49.292969 196.085938 49.289062 196.078125 49.285156 C 196.066406 49.277344 196.058594 49.269531 196.050781 49.265625 L 163.617188 33.050781 C 163.398438 32.941406 163.140625 32.941406 162.921875 33.050781 L 144.160156 42.429688 L 131.535156 17.183594 C 131.527344 17.167969 131.519531 17.15625 131.511719 17.144531 C 131.503906 17.128906 131.492188 17.113281 131.480469 17.097656 C 131.453125 17.054688 131.417969 17.015625 131.382812 16.976562 C 131.375 16.96875 131.367188 16.960938 131.355469 16.949219 C 131.308594 16.90625 131.253906 16.871094 131.199219 16.84375 C 131.195312 16.839844 131.191406 16.835938 131.1875 16.835938 L 98.753906 0.617188 C 98.535156 0.507812 98.277344 0.507812 98.058594 0.617188 L 65.628906 16.835938 C 65.617188 16.839844 65.609375 16.847656 65.601562 16.851562 C 65.589844 16.859375 65.578125 16.859375 65.566406 16.867188 C 65.542969 16.882812 65.523438 16.902344 65.503906 16.921875 C 65.476562 16.9375 65.453125 16.957031 65.433594 16.976562 C 65.40625 17.003906 65.378906 17.035156 65.355469 17.070312 C 65.339844 17.09375 65.320312 17.113281 65.304688 17.136719 C 65.285156 17.175781 65.269531 17.21875 65.253906 17.257812 C 65.246094 17.28125 65.234375 17.300781 65.226562 17.324219 C 65.207031 17.390625 65.199219 17.460938 65.199219 17.53125 L 65.199219 48.703125 L 33.890625 33.050781 C 33.671875 32.941406 33.414062 32.941406 33.195312 33.050781 L 0.765625 49.265625 C 0.753906 49.269531 0.746094 49.28125 0.738281 49.285156 C 0.726562 49.289062 0.714844 49.292969 0.703125 49.300781 C 0.679688 49.316406 0.660156 49.335938 0.640625 49.351562 C 0.617188 49.371094 0.59375 49.386719 0.570312 49.410156 C 0.542969 49.4375 0.515625 49.46875 0.492188 49.5 C 0.476562 49.523438 0.457031 49.542969 0.445312 49.566406 C 0.421875 49.609375 0.40625 49.648438 0.386719 49.691406 C 0.382812 49.714844 0.371094 49.734375 0.363281 49.753906 C 0.34375 49.820312 0.335938 49.890625 0.335938 49.960938 L 0.335938 147.253906 C 0.335938 147.550781 0.503906 147.820312 0.765625 147.949219 L 33.195312 164.167969 C 33.222656 164.179688 33.25 164.183594 33.277344 164.195312 C 33.304688 164.203125 33.332031 164.21875 33.359375 164.222656 C 33.398438 164.234375 33.4375 164.234375 33.476562 164.242188 C 33.5 164.242188 33.523438 164.25 33.542969 164.25 C 33.550781 164.25 33.558594 164.246094 33.566406 164.246094 C 33.585938 164.246094 33.609375 164.242188 33.628906 164.242188 C 33.671875 164.234375 33.710938 164.230469 33.75 164.21875 C 33.773438 164.210938 33.796875 164.203125 33.820312 164.195312 C 33.84375 164.183594 33.871094 164.179688 33.890625 164.167969 L 52.65625 154.785156 L 65.28125 180.035156 C 65.355469 180.183594 65.476562 180.308594 65.628906 180.382812 L 98.058594 196.597656 C 98.089844 196.613281 98.121094 196.621094 98.152344 196.632812 C 98.171875 196.640625 98.191406 196.648438 98.210938 196.652344 C 98.277344 196.671875 98.339844 196.679688 98.40625 196.679688 C 98.472656 196.679688 98.539062 196.671875 98.601562 196.652344 C 98.625 196.648438 98.640625 196.640625 98.660156 196.632812 C 98.695312 196.621094 98.726562 196.613281 98.753906 196.597656 L 131.1875 180.382812 C 131.449219 180.25 131.617188 179.984375 131.617188 179.6875 L 131.617188 148.515625 L 162.921875 164.167969 C 162.988281 164.199219 163.058594 164.21875 163.125 164.234375 C 163.144531 164.234375 163.164062 164.238281 163.179688 164.242188 C 163.210938 164.242188 163.242188 164.25 163.269531 164.25 C 163.296875 164.25 163.320312 164.242188 163.34375 164.242188 C 163.367188 164.238281 163.386719 164.238281 163.40625 164.234375 C 163.476562 164.21875 163.546875 164.203125 163.609375 164.167969 C 163.613281 164.167969 163.617188 164.167969 163.617188 164.167969 L 196.050781 147.949219 C 196.3125 147.820312 196.480469 147.550781 196.480469 147.253906 L 196.480469 49.960938 C 196.480469 49.890625 196.46875 49.820312 196.449219 49.757812 " fill-opacity="1" fill-rule="nonzero"/></g><g clip-path="url(#9dd85c1369)"><path fill="#33af91" d="M 163.421875 164.339844 L 131.390625 132.304688 C 131.167969 132.082031 130.832031 132.015625 130.539062 132.136719 C 130.25 132.253906 130.058594 132.539062 130.058594 132.855469 L 130.058594 181.019531 L 99.1875 196.457031 L 99.1875 100.90625 L 130.683594 85.15625 L 162.71875 117.1875 C 162.769531 117.238281 162.828125 117.277344 162.886719 117.3125 C 162.898438 117.320312 162.914062 117.328125 162.929688 117.335938 C 162.988281 117.367188 163.050781 117.386719 163.117188 117.402344 C 163.167969 117.414062 163.21875 117.417969 163.269531 117.417969 C 163.285156 117.417969 163.304688 117.414062 163.320312 117.414062 C 163.335938 117.410156 163.351562 117.410156 163.367188 117.410156 C 163.433594 117.398438 163.503906 117.386719 163.570312 117.359375 C 163.859375 117.238281 164.046875 116.953125 164.046875 116.640625 L 164.046875 68.472656 L 194.921875 53.035156 L 194.921875 148.589844 Z M 131.617188 148.589844 L 131.617188 134.734375 L 159.328125 162.445312 Z M 53.703125 155.214844 C 53.703125 155.214844 53.699219 155.210938 53.699219 155.210938 L 45.070312 137.953125 C 45.0625 137.9375 45.058594 137.925781 45.050781 137.910156 L 34.242188 116.292969 C 34.078125 115.96875 33.71875 115.800781 33.367188 115.882812 C 33.015625 115.964844 32.765625 116.277344 32.765625 116.640625 L 32.765625 164.027344 L 1.890625 148.589844 L 1.890625 53.035156 L 32.964844 68.574219 L 65.28125 133.203125 C 65.3125 133.265625 65.347656 133.316406 65.390625 133.367188 C 65.398438 133.375 65.40625 133.382812 65.414062 133.394531 C 65.460938 133.4375 65.507812 133.476562 65.558594 133.511719 C 65.570312 133.515625 65.578125 133.519531 65.589844 133.527344 C 65.644531 133.558594 65.699219 133.585938 65.761719 133.601562 C 65.761719 133.601562 65.761719 133.601562 65.765625 133.605469 C 65.824219 133.621094 65.886719 133.628906 65.953125 133.628906 C 65.960938 133.628906 65.96875 133.632812 65.976562 133.632812 C 65.980469 133.632812 65.988281 133.628906 65.996094 133.628906 C 66.046875 133.628906 66.101562 133.625 66.15625 133.613281 C 66.507812 133.527344 66.753906 133.214844 66.753906 132.855469 L 66.753906 85.46875 L 87.222656 95.699219 C 87.230469 95.707031 87.238281 95.710938 87.25 95.71875 L 97.628906 100.90625 L 97.628906 196.457031 L 66.558594 180.921875 Z M 34.324219 164.027344 L 34.324219 119.9375 L 43.636719 138.566406 C 43.644531 138.582031 43.652344 138.59375 43.660156 138.609375 L 51.957031 155.210938 Z M 33.542969 36.429688 L 64.234375 51.777344 L 33.542969 67.121094 L 2.855469 51.777344 Z M 98.40625 4 L 129.097656 19.34375 L 98.40625 34.691406 L 67.714844 19.34375 Z M 130.492188 51.082031 C 130.480469 51.085938 130.472656 51.09375 130.464844 51.097656 C 130.453125 51.105469 130.441406 51.109375 130.429688 51.113281 C 130.40625 51.128906 130.386719 51.148438 130.363281 51.167969 C 130.339844 51.183594 130.316406 51.203125 130.296875 51.222656 C 130.265625 51.25 130.242188 51.28125 130.21875 51.316406 C 130.203125 51.339844 130.183594 51.359375 130.167969 51.382812 C 130.144531 51.421875 130.128906 51.464844 130.117188 51.503906 C 130.109375 51.527344 130.09375 51.546875 130.089844 51.570312 C 130.070312 51.636719 130.058594 51.707031 130.058594 51.777344 L 130.058594 82.949219 L 120.605469 78.21875 L 99.449219 35.910156 L 100.089844 35.589844 L 130.492188 20.390625 L 142.765625 44.941406 Z M 163.269531 36.429688 L 193.960938 51.777344 L 163.269531 67.121094 L 152.808594 61.890625 C 152.796875 61.882812 152.785156 61.878906 152.773438 61.875 L 132.578125 51.777344 L 144.160156 45.988281 C 144.160156 45.984375 144.160156 45.984375 144.164062 45.984375 Z M 131.617188 83.886719 L 131.617188 53.035156 L 152.070312 63.261719 C 152.082031 63.269531 152.097656 63.277344 152.113281 63.285156 L 162.492188 68.472656 L 162.492188 114.761719 Z M 97.402344 99.050781 L 87.949219 94.324219 C 87.949219 94.320312 87.949219 94.320312 87.945312 94.320312 L 67.714844 84.207031 L 98.40625 68.863281 L 119.644531 79.480469 C 119.65625 79.488281 119.667969 79.496094 119.679688 79.5 L 129.097656 84.207031 L 98.40625 99.554688 Z M 65.199219 129.558594 L 34.589844 68.339844 L 65.628906 52.820312 L 77.902344 77.375 L 65.628906 83.511719 C 65.617188 83.515625 65.609375 83.523438 65.601562 83.53125 C 65.589844 83.535156 65.578125 83.539062 65.566406 83.546875 C 65.542969 83.5625 65.523438 83.582031 65.503906 83.597656 C 65.476562 83.617188 65.453125 83.632812 65.433594 83.65625 C 65.40625 83.683594 65.378906 83.714844 65.355469 83.746094 C 65.339844 83.769531 65.320312 83.789062 65.304688 83.8125 C 65.285156 83.851562 65.269531 83.894531 65.253906 83.9375 C 65.246094 83.960938 65.234375 83.980469 65.226562 84.003906 C 65.207031 84.066406 65.199219 84.136719 65.199219 84.207031 Z M 92.515625 33.484375 L 97.828125 36.140625 L 103.917969 48.324219 L 118.285156 77.0625 L 98.753906 67.296875 C 98.535156 67.1875 98.277344 67.1875 98.058594 67.296875 L 79.296875 76.675781 L 66.753906 51.59375 L 66.753906 20.605469 Z M 196.449219 51.570312 C 196.445312 51.546875 196.433594 51.527344 196.425781 51.503906 C 196.410156 51.460938 196.390625 51.421875 196.371094 51.382812 C 196.355469 51.359375 196.339844 51.339844 196.320312 51.316406 C 196.296875 51.28125 196.273438 51.25 196.242188 51.222656 C 196.222656 51.203125 196.199219 51.183594 196.175781 51.167969 C 196.152344 51.148438 196.136719 51.128906 196.109375 51.113281 C 196.101562 51.109375 196.085938 51.105469 196.078125 51.097656 C 196.066406 51.09375 196.058594 51.085938 196.050781 51.082031 L 163.617188 34.863281 C 163.398438 34.753906 163.140625 34.753906 162.921875 34.863281 L 144.160156 44.246094 L 131.535156 18.996094 C 131.527344 18.984375 131.519531 18.972656 131.511719 18.960938 C 131.503906 18.945312 131.492188 18.929688 131.480469 18.914062 C 131.453125 18.867188 131.417969 18.828125 131.382812 18.792969 C 131.375 18.785156 131.367188 18.773438 131.355469 18.765625 C 131.308594 18.722656 131.253906 18.6875 131.199219 18.65625 C 131.195312 18.65625 131.191406 18.652344 131.1875 18.648438 L 98.753906 2.433594 C 98.535156 2.324219 98.277344 2.324219 98.058594 2.433594 L 65.628906 18.648438 C 65.617188 18.652344 65.609375 18.660156 65.601562 18.667969 C 65.589844 18.675781 65.578125 18.675781 65.566406 18.683594 C 65.542969 18.699219 65.523438 18.71875 65.503906 18.734375 C 65.476562 18.753906 65.453125 18.769531 65.433594 18.789062 C 65.40625 18.820312 65.378906 18.851562 65.355469 18.886719 C 65.339844 18.90625 65.320312 18.929688 65.304688 18.953125 C 65.285156 18.988281 65.269531 19.03125 65.253906 19.074219 C 65.246094 19.097656 65.234375 19.117188 65.226562 19.140625 C 65.207031 19.207031 65.199219 19.273438 65.199219 19.34375 L 65.199219 50.515625 L 33.890625 34.863281 C 33.671875 34.753906 33.414062 34.753906 33.195312 34.863281 L 0.765625 51.082031 C 0.753906 51.085938 0.746094 51.09375 0.738281 51.097656 C 0.726562 51.105469 0.714844 51.109375 0.703125 51.113281 C 0.679688 51.128906 0.660156 51.148438 0.640625 51.167969 C 0.617188 51.183594 0.59375 51.203125 0.570312 51.222656 C 0.542969 51.25 0.515625 51.285156 0.492188 51.316406 C 0.476562 51.339844 0.457031 51.359375 0.445312 51.382812 C 0.421875 51.421875 0.40625 51.464844 0.386719 51.507812 C 0.382812 51.527344 0.371094 51.546875 0.363281 51.570312 C 0.34375 51.636719 0.335938 51.707031 0.335938 51.777344 L 0.335938 149.070312 C 0.335938 149.367188 0.503906 149.632812 0.765625 149.765625 L 33.195312 165.980469 C 33.222656 165.996094 33.25 166 33.277344 166.007812 C 33.304688 166.019531 33.332031 166.03125 33.359375 166.039062 C 33.398438 166.046875 33.4375 166.050781 33.476562 166.054688 C 33.5 166.058594 33.523438 166.066406 33.542969 166.066406 C 33.550781 166.066406 33.558594 166.0625 33.566406 166.0625 C 33.585938 166.0625 33.609375 166.058594 33.628906 166.054688 C 33.671875 166.050781 33.710938 166.042969 33.75 166.035156 C 33.773438 166.027344 33.796875 166.019531 33.820312 166.007812 C 33.84375 166 33.871094 165.992188 33.890625 165.980469 L 52.65625 156.601562 L 65.28125 181.847656 C 65.355469 182 65.476562 182.121094 65.628906 182.199219 L 98.058594 198.414062 C 98.089844 198.429688 98.121094 198.4375 98.152344 198.445312 C 98.171875 198.453125 98.191406 198.464844 98.210938 198.46875 C 98.277344 198.484375 98.339844 198.496094 98.40625 198.496094 C 98.472656 198.496094 98.539062 198.484375 98.601562 198.46875 C 98.625 198.464844 98.640625 198.453125 98.660156 198.445312 C 98.695312 198.4375 98.726562 198.429688 98.753906 198.414062 L 131.1875 182.199219 C 131.449219 182.066406 131.617188 181.796875 131.617188 181.5 L 131.617188 150.328125 L 162.921875 165.980469 C 162.988281 166.015625 163.058594 166.035156 163.125 166.046875 C 163.144531 166.050781 163.164062 166.050781 163.179688 166.054688 C 163.210938 166.058594 163.242188 166.066406 163.269531 166.066406 C 163.296875 166.066406 163.320312 166.058594 163.34375 166.054688 C 163.367188 166.054688 163.386719 166.050781 163.40625 166.046875 C 163.476562 166.035156 163.546875 166.015625 163.609375 165.984375 C 163.613281 165.984375 163.617188 165.984375 163.617188 165.980469 L 196.050781 149.765625 C 196.3125 149.632812 196.480469 149.367188 196.480469 149.070312 L 196.480469 51.777344 C 196.480469 51.707031 196.46875 51.636719 196.449219 51.570312 " fill-opacity="1" fill-rule="nonzero"/></g><g clip-path="url(#415c33cc09)"><path fill="#33af91" d="M 165.601562 162.523438 L 133.566406 130.488281 C 133.34375 130.265625 133.007812 130.199219 132.71875 130.320312 C 132.429688 130.441406 132.238281 130.722656 132.238281 131.039062 L 132.238281 179.207031 L 101.363281 194.644531 L 101.363281 99.089844 L 132.863281 83.339844 L 164.898438 115.375 C 164.945312 115.425781 165.003906 115.464844 165.0625 115.496094 C 165.078125 115.503906 165.09375 115.511719 165.109375 115.519531 C 165.167969 115.550781 165.230469 115.574219 165.292969 115.585938 C 165.292969 115.585938 165.296875 115.585938 165.296875 115.585938 C 165.347656 115.597656 165.398438 115.601562 165.449219 115.601562 C 165.464844 115.601562 165.480469 115.597656 165.5 115.597656 C 165.515625 115.597656 165.527344 115.59375 165.542969 115.59375 C 165.613281 115.585938 165.679688 115.570312 165.746094 115.542969 C 166.035156 115.421875 166.226562 115.140625 166.226562 114.824219 L 166.226562 66.660156 L 197.101562 51.222656 L 197.101562 146.773438 Z M 133.796875 146.773438 L 133.796875 132.917969 L 161.507812 160.628906 Z M 55.878906 153.398438 C 55.878906 153.398438 55.878906 153.394531 55.878906 153.394531 L 47.246094 136.136719 C 47.242188 136.121094 47.234375 136.109375 47.226562 136.09375 L 36.417969 114.476562 C 36.257812 114.152344 35.898438 113.984375 35.542969 114.066406 C 35.191406 114.148438 34.945312 114.460938 34.945312 114.824219 L 34.945312 162.210938 L 4.070312 146.773438 L 4.070312 51.222656 L 35.140625 66.757812 L 67.457031 131.386719 C 67.488281 131.449219 67.527344 131.503906 67.570312 131.550781 C 67.578125 131.558594 67.585938 131.570312 67.59375 131.578125 C 67.636719 131.621094 67.683594 131.660156 67.738281 131.695312 C 67.746094 131.699219 67.757812 131.707031 67.765625 131.710938 C 67.820312 131.742188 67.878906 131.769531 67.941406 131.789062 C 68.003906 131.804688 68.066406 131.8125 68.132812 131.816406 C 68.140625 131.816406 68.144531 131.816406 68.152344 131.816406 C 68.160156 131.816406 68.167969 131.816406 68.175781 131.816406 C 68.226562 131.8125 68.28125 131.808594 68.332031 131.796875 C 68.683594 131.714844 68.933594 131.402344 68.933594 131.039062 L 68.933594 83.652344 L 89.398438 93.886719 C 89.40625 93.890625 89.417969 93.894531 89.429688 93.902344 L 99.808594 99.089844 L 99.808594 194.644531 L 68.734375 179.105469 Z M 36.5 162.210938 L 36.5 118.121094 L 45.816406 136.753906 C 45.824219 136.765625 45.828125 136.78125 45.835938 136.792969 L 54.136719 153.394531 Z M 35.722656 34.617188 L 66.414062 49.960938 L 35.722656 65.308594 L 5.03125 49.960938 Z M 100.585938 2.183594 L 131.277344 17.53125 L 100.585938 32.875 L 69.894531 17.53125 Z M 132.667969 49.265625 C 132.65625 49.269531 132.648438 49.277344 132.640625 49.285156 C 132.628906 49.289062 132.617188 49.292969 132.609375 49.300781 C 132.582031 49.316406 132.566406 49.335938 132.542969 49.351562 C 132.519531 49.371094 132.496094 49.386719 132.472656 49.410156 C 132.445312 49.4375 132.421875 49.46875 132.394531 49.5 C 132.378906 49.523438 132.363281 49.542969 132.347656 49.566406 C 132.324219 49.605469 132.308594 49.648438 132.292969 49.691406 C 132.285156 49.710938 132.273438 49.734375 132.265625 49.757812 C 132.25 49.820312 132.238281 49.890625 132.238281 49.960938 L 132.238281 81.132812 L 122.785156 76.402344 L 101.628906 34.09375 L 132.667969 18.574219 L 144.945312 43.128906 Z M 165.449219 34.617188 L 196.136719 49.960938 L 165.449219 65.308594 L 154.988281 60.074219 C 154.976562 60.070312 154.964844 60.0625 154.949219 60.058594 L 134.757812 49.960938 L 146.335938 44.171875 C 146.339844 44.171875 146.339844 44.171875 146.339844 44.171875 Z M 133.796875 82.070312 L 133.796875 51.222656 L 154.246094 61.445312 C 154.261719 61.453125 154.273438 61.464844 154.289062 61.46875 L 164.667969 66.660156 L 164.667969 112.945312 Z M 99.582031 97.238281 L 90.125 92.507812 L 69.894531 82.394531 L 100.585938 67.046875 L 121.824219 77.667969 C 121.835938 77.671875 121.847656 77.679688 121.859375 77.683594 L 131.277344 82.394531 L 100.585938 97.738281 Z M 67.375 127.742188 L 36.765625 66.523438 L 67.804688 51.003906 L 73.945312 63.28125 L 80.082031 75.558594 L 67.804688 81.695312 C 67.796875 81.703125 67.789062 81.710938 67.777344 81.714844 C 67.769531 81.722656 67.753906 81.726562 67.746094 81.730469 C 67.71875 81.746094 67.703125 81.765625 67.679688 81.78125 C 67.65625 81.800781 67.632812 81.816406 67.613281 81.839844 C 67.582031 81.867188 67.558594 81.898438 67.535156 81.933594 C 67.519531 81.953125 67.5 81.976562 67.484375 82 C 67.464844 82.039062 67.445312 82.082031 67.429688 82.121094 C 67.421875 82.144531 67.410156 82.164062 67.40625 82.1875 C 67.386719 82.253906 67.375 82.324219 67.375 82.394531 Z M 94.695312 31.671875 L 100.003906 34.328125 L 106.097656 46.511719 L 120.464844 75.246094 L 100.933594 65.480469 C 100.714844 65.371094 100.457031 65.371094 100.238281 65.480469 L 81.476562 74.863281 L 68.933594 49.777344 L 68.933594 18.789062 Z M 198.628906 49.757812 C 198.621094 49.734375 198.613281 49.710938 198.601562 49.691406 C 198.585938 49.648438 198.570312 49.605469 198.550781 49.566406 C 198.535156 49.542969 198.515625 49.523438 198.5 49.5 C 198.476562 49.46875 198.449219 49.4375 198.421875 49.410156 C 198.402344 49.386719 198.378906 49.371094 198.351562 49.351562 C 198.332031 49.335938 198.3125 49.316406 198.289062 49.300781 C 198.277344 49.292969 198.265625 49.289062 198.253906 49.285156 C 198.246094 49.277344 198.238281 49.269531 198.226562 49.265625 L 165.796875 33.050781 C 165.578125 32.941406 165.320312 32.941406 165.101562 33.050781 L 146.335938 42.429688 L 133.710938 17.183594 C 133.707031 17.167969 133.695312 17.15625 133.6875 17.144531 C 133.679688 17.128906 133.667969 17.113281 133.660156 17.097656 C 133.628906 17.054688 133.597656 17.015625 133.5625 16.976562 C 133.550781 16.96875 133.542969 16.960938 133.535156 16.949219 C 133.484375 16.90625 133.433594 16.871094 133.375 16.84375 C 133.371094 16.839844 133.367188 16.835938 133.363281 16.835938 L 100.933594 0.617188 C 100.714844 0.507812 100.457031 0.507812 100.238281 0.617188 L 67.804688 16.835938 C 67.796875 16.839844 67.789062 16.847656 67.777344 16.851562 C 67.769531 16.859375 67.753906 16.859375 67.746094 16.867188 C 67.71875 16.882812 67.703125 16.902344 67.679688 16.921875 C 67.65625 16.9375 67.632812 16.957031 67.613281 16.976562 C 67.582031 17.003906 67.558594 17.035156 67.535156 17.070312 C 67.519531 17.09375 67.5 17.113281 67.484375 17.136719 C 67.464844 17.175781 67.445312 17.21875 67.429688 17.257812 C 67.421875 17.28125 67.410156 17.300781 67.40625 17.324219 C 67.386719 17.390625 67.375 17.460938 67.375 17.53125 L 67.375 48.703125 L 36.070312 33.050781 C 35.851562 32.941406 35.59375 32.941406 35.375 33.050781 L 2.945312 49.265625 C 2.933594 49.269531 2.925781 49.28125 2.914062 49.285156 C 2.90625 49.289062 2.894531 49.292969 2.882812 49.300781 C 2.859375 49.316406 2.839844 49.335938 2.816406 49.351562 C 2.792969 49.371094 2.769531 49.386719 2.75 49.410156 C 2.71875 49.4375 2.695312 49.46875 2.671875 49.5 C 2.652344 49.523438 2.636719 49.542969 2.625 49.566406 C 2.597656 49.609375 2.582031 49.648438 2.566406 49.691406 C 2.558594 49.714844 2.546875 49.734375 2.542969 49.753906 C 2.523438 49.820312 2.511719 49.890625 2.511719 49.960938 L 2.511719 147.253906 C 2.511719 147.550781 2.679688 147.820312 2.945312 147.949219 L 35.375 164.167969 C 35.398438 164.179688 35.425781 164.183594 35.453125 164.195312 C 35.480469 164.203125 35.507812 164.21875 35.539062 164.222656 C 35.574219 164.234375 35.613281 164.234375 35.652344 164.242188 C 35.675781 164.242188 35.699219 164.25 35.722656 164.25 C 35.730469 164.25 35.738281 164.246094 35.742188 164.246094 C 35.765625 164.246094 35.785156 164.242188 35.808594 164.242188 C 35.847656 164.234375 35.886719 164.230469 35.929688 164.21875 C 35.949219 164.210938 35.972656 164.203125 36 164.195312 C 36.023438 164.183594 36.046875 164.179688 36.070312 164.167969 L 54.832031 154.785156 L 67.457031 180.035156 C 67.535156 180.183594 67.65625 180.308594 67.804688 180.382812 L 100.238281 196.597656 C 100.265625 196.613281 100.296875 196.621094 100.332031 196.632812 C 100.351562 196.640625 100.371094 196.648438 100.390625 196.652344 C 100.453125 196.671875 100.519531 196.679688 100.585938 196.679688 C 100.652344 196.679688 100.71875 196.671875 100.78125 196.652344 C 100.800781 196.648438 100.820312 196.640625 100.839844 196.632812 C 100.871094 196.621094 100.902344 196.613281 100.933594 196.597656 L 133.363281 180.382812 C 133.628906 180.25 133.796875 179.984375 133.796875 179.6875 L 133.796875 148.515625 L 165.101562 164.167969 C 165.164062 164.199219 165.234375 164.21875 165.304688 164.234375 C 165.324219 164.234375 165.339844 164.238281 165.359375 164.242188 C 165.386719 164.242188 165.417969 164.25 165.449219 164.25 C 165.472656 164.25 165.5 164.242188 165.523438 164.242188 C 165.546875 164.238281 165.566406 164.238281 165.585938 164.234375 C 165.65625 164.21875 165.722656 164.203125 165.789062 164.167969 C 165.792969 164.167969 165.792969 164.167969 165.796875 164.167969 L 198.226562 147.949219 C 198.492188 147.820312 198.65625 147.550781 198.65625 147.253906 L 198.65625 49.960938 C 198.65625 49.890625 198.648438 49.820312 198.628906 49.757812 " fill-opacity="1" fill-rule="nonzero"/></g></g></g></svg>