<svg xmlns="http://www.w3.org/2000/svg" xmlns:xlink="http://www.w3.org/1999/xlink" width="500" zoomAndPan="magnify" viewBox="0 0 375 374.999991" height="500" preserveAspectRatio="xMidYMid meet" version="1.0"><defs><clipPath id="c2e6f410e4"><path d="M 60.089844 15.328125 L 315 15.328125 L 315 359.578125 L 60.089844 359.578125 Z M 60.089844 15.328125 " clip-rule="nonzero"/></clipPath></defs><g clip-path="url(#c2e6f410e4)"><path fill="#99505c" d="M 283.285156 156.734375 L 283.285156 111.125 C 283.285156 58.234375 240.257812 15.203125 187.363281 15.203125 C 134.46875 15.203125 91.4375 58.234375 91.4375 111.125 L 91.4375 156.738281 C 73.511719 162.027344 60.375 178.613281 60.375 198.230469 L 60.375 316.246094 C 60.375 340.109375 79.792969 359.527344 103.65625 359.527344 L 271.070312 359.527344 C 294.933594 359.527344 314.351562 340.109375 314.351562 316.246094 L 314.351562 198.230469 C 314.351562 178.609375 301.214844 162.023438 283.285156 156.734375 Z M 187.363281 36.84375 C 228.324219 36.84375 261.648438 70.164062 261.648438 111.125 L 261.648438 154.953125 L 113.078125 154.953125 L 113.078125 111.125 C 113.078125 70.164062 146.402344 36.84375 187.363281 36.84375 Z M 292.710938 316.246094 C 292.710938 328.175781 283.003906 337.882812 271.070312 337.882812 L 103.65625 337.882812 C 91.722656 337.882812 82.015625 328.175781 82.015625 316.246094 L 82.015625 198.230469 C 82.015625 188.398438 88.613281 180.089844 97.609375 177.464844 L 277.113281 177.464844 C 286.109375 180.089844 292.707031 188.398438 292.707031 198.230469 L 292.707031 316.246094 Z M 292.710938 316.246094 " fill-opacity="1" fill-rule="nonzero"/></g><path fill="#99505c" d="M 209.917969 246.164062 C 209.917969 233.707031 199.820312 223.609375 187.363281 223.609375 C 174.90625 223.609375 164.808594 233.707031 164.808594 246.164062 C 164.808594 254.699219 169.550781 262.125 176.542969 265.953125 L 176.542969 287.007812 C 176.542969 292.984375 181.386719 297.828125 187.363281 297.828125 C 193.339844 297.828125 198.183594 292.984375 198.183594 287.007812 L 198.183594 265.953125 C 205.175781 262.125 209.917969 254.699219 209.917969 246.164062 Z M 209.917969 246.164062 " fill-opacity="1" fill-rule="nonzero"/></svg>